<?xml version="1.0" standalone="no"?>
<!DOCTYPE svg PUBLIC "-//W3C//DTD SVG 20010904//EN"
 "http://www.w3.org/TR/2001/REC-SVG-20010904/DTD/svg10.dtd">
<svg version="1.0" xmlns="http://www.w3.org/2000/svg"
 width="1080.000000pt" height="1080.000000pt" viewBox="0 0 1080.000000 1080.000000"
 preserveAspectRatio="xMidYMid meet">
<metadata>
Created by potrace 1.11, written by Peter Selinger 2001-2013
</metadata>
<g transform="translate(0.000000,1080.000000) scale(0.100000,-0.100000)"
fill="#000000" stroke="none">
<path d="M4927 9946 c-108 -36 -200 -129 -229 -231 -19 -65 -13 -172 12 -238
39 -103 148 -193 260 -215 203 -40 406 110 423 313 21 258 -223 453 -466 371z"/>
<path d="M6277 9763 c4 -235 11 -494 12 -510 1 -7 7 -13 15 -13 7 0 36 -7 62
-15 27 -8 96 -28 154 -45 58 -17 143 -44 190 -61 90 -32 103 -37 162 -63 20
-9 38 -16 41 -16 3 0 50 -21 104 -47 54 -25 100 -47 103 -47 3 -1 55 -28 115
-60 572 -306 1050 -740 1413 -1283 45 -67 82 -127 82 -132 0 -5 4 -11 9 -13
21 -8 217 -397 280 -556 66 -167 147 -414 165 -505 3 -12 14 -60 25 -107 22
-95 57 -293 66 -385 22 -216 25 -273 25 -450 0 -155 -4 -274 -15 -380 -7 -68
-16 -149 -20 -175 -5 -30 -35 -207 -40 -235 -10 -58 -68 -283 -95 -370 -186
-601 -505 -1134 -950 -1588 -260 -266 -543 -482 -890 -680 -156 -89 -459 -223
-645 -285 -78 -26 -292 -87 -341 -98 -7 -1 -43 -9 -80 -17 -38 -9 -85 -18
-104 -21 -19 -3 -46 -8 -60 -11 -14 -3 -40 -7 -57 -10 -18 -2 -48 -6 -65 -9
-65 -11 -159 -20 -308 -31 -82 -6 -350 -6 -455 0 -273 15 -526 57 -845 139
-64 17 -270 88 -385 133 -335 132 -731 362 -994 578 -211 174 -446 408 -600
600 -337 422 -578 887 -719 1395 -45 161 -94 392 -107 500 -3 25 -7 61 -10 80
-2 19 -7 71 -11 115 -3 44 -8 89 -10 100 -6 25 -5 444 0 503 15 165 18 197 21
214 2 11 7 47 10 81 4 34 8 64 10 67 2 3 6 26 10 50 3 25 13 73 20 106 17 72
24 107 31 149 18 97 158 516 199 594 l13 26 2236 1 2236 0 1 -40 c0 -23 3
-142 5 -266 6 -304 6 -2411 0 -2580 -3 -74 -8 -151 -10 -170 -9 -63 -17 -116
-21 -141 -2 -13 -6 -41 -9 -61 -3 -21 -11 -59 -17 -85 -6 -27 -13 -59 -15 -73
-17 -92 -70 -251 -103 -313 -36 -67 -115 -156 -186 -210 -64 -49 -184 -114
-225 -121 -14 -3 -68 -15 -120 -27 -98 -23 -272 -30 -387 -15 -54 6 -192 53
-376 126 -98 40 -119 53 -245 158 -75 63 -145 124 -154 134 -9 11 -54 60 -100
110 -46 49 -84 94 -86 99 -2 5 -20 -10 -39 -34 -19 -23 -57 -67 -83 -97 -189
-218 -323 -377 -327 -388 -9 -23 131 -174 297 -320 118 -103 253 -190 449
-288 183 -91 281 -124 420 -140 31 -3 65 -8 76 -10 80 -16 540 -24 645 -11
205 24 357 70 580 174 81 38 144 79 270 178 119 93 263 281 345 450 65 134
143 377 160 500 3 22 8 49 10 60 16 77 20 337 17 1365 -5 2158 -8 2689 -15
2696 -7 7 -5665 10 -5671 3 -13 -17 -166 -341 -209 -445 -99 -237 -213 -606
-258 -836 -28 -149 -45 -252 -54 -338 -4 -36 -9 -73 -11 -84 -3 -16 -8 -72
-20 -211 -6 -65 -6 -516 0 -570 2 -27 7 -86 11 -130 6 -82 11 -133 21 -195 3
-19 7 -48 9 -65 4 -36 23 -150 30 -185 57 -294 122 -520 227 -800 74 -197 203
-465 305 -638 24 -41 43 -76 43 -78 0 -3 8 -17 19 -32 10 -15 40 -61 67 -102
46 -71 154 -227 181 -260 6 -8 40 -51 74 -95 57 -73 155 -189 204 -241 139
-148 300 -304 395 -384 36 -30 67 -57 70 -60 29 -31 381 -290 442 -325 10 -5
55 -33 100 -62 151 -94 415 -230 588 -303 41 -17 84 -35 95 -41 148 -69 611
-203 840 -244 49 -9 143 -24 180 -30 22 -3 47 -7 55 -10 8 -2 46 -6 83 -10 37
-3 77 -8 88 -10 123 -24 757 -24 899 -1 14 3 57 7 95 11 67 6 232 31 360 55
146 27 496 123 613 167 9 3 19 7 22 7 9 2 104 37 125 47 11 4 43 17 71 28 124
47 387 175 529 256 185 105 535 340 575 385 3 3 36 30 74 60 63 50 99 80 180
153 71 65 253 247 310 311 33 38 70 78 81 90 53 56 230 286 316 411 300 437
558 1009 665 1477 2 10 6 26 8 35 33 130 72 342 91 493 4 30 9 62 10 71 2 9 6
58 10 110 4 52 9 112 11 134 5 64 5 516 0 565 -3 25 -8 79 -11 120 -5 72 -14
157 -20 191 -2 9 -6 40 -10 70 -3 30 -8 61 -10 69 -2 8 -7 35 -10 60 -4 24 -8
47 -10 50 -2 3 -6 26 -10 50 -17 116 -105 444 -166 617 -160 454 -389 882
-675 1259 -53 71 -100 131 -104 134 -3 3 -13 15 -21 26 -51 75 -373 407 -514
530 -381 333 -818 604 -1260 784 -71 29 -139 56 -150 61 -102 45 -513 163
-711 204 l-31 6 4 -188z"/>
<path d="M3605 9648 c-124 -18 -231 -102 -277 -218 -36 -88 -34 -198 5 -282
33 -69 104 -140 173 -173 154 -73 352 -17 444 127 49 75 64 131 58 221 -13
205 -200 355 -403 325z"/>
<path d="M2505 8695 c-277 -65 -371 -405 -167 -601 54 -52 85 -69 162 -89 165
-42 333 42 408 204 22 46 26 71 27 141 0 77 -3 92 -33 152 -74 151 -238 230
-397 193z"/>
</g>
</svg>
