<?xml version="1.0" encoding="UTF-8" standalone="no"?>
<svg
   xmlns:dc="http://purl.org/dc/elements/1.1/"
   xmlns:cc="http://creativecommons.org/ns#"
   xmlns:rdf="http://www.w3.org/1999/02/22-rdf-syntax-ns#"
   xmlns:svg="http://www.w3.org/2000/svg"
   xmlns="http://www.w3.org/2000/svg"
   xmlns:sodipodi="http://sodipodi.sourceforge.net/DTD/sodipodi-0.dtd"
   xmlns:inkscape="http://www.inkscape.org/namespaces/inkscape"
   id="Layer_1"
   data-name="Layer 1"
   viewBox="0 0 1080 1080"
   version="1.1"
   sodipodi:docname="job4me-logo-01.svg"
   width="1080"
   height="1080"
   inkscape:version="0.92.3 (2405546, 2018-03-11)">
  <metadata
     id="metadata11">
    <rdf:RDF>
      <cc:Work
         rdf:about="">
        <dc:format>image/svg+xml</dc:format>
        <dc:type
           rdf:resource="http://purl.org/dc/dcmitype/StillImage" />
        <dc:title>job4me-logo</dc:title>
      </cc:Work>
    </rdf:RDF>
  </metadata>
  <defs
     id="defs9" />
  <sodipodi:namedview
     pagecolor="#ffffff"
     bordercolor="#666666"
     borderopacity="1"
     objecttolerance="10"
     gridtolerance="10"
     guidetolerance="10"
     inkscape:pageopacity="0"
     inkscape:pageshadow="2"
     inkscape:window-width="1920"
     inkscape:window-height="1016"
     id="namedview7"
     showgrid="false"
     showguides="true"
     inkscape:guide-bbox="true"
     inkscape:zoom="0.63446243"
     inkscape:cx="406.3945"
     inkscape:cy="578.71989"
     inkscape:window-x="0"
     inkscape:window-y="27"
     inkscape:window-maximized="1"
     inkscape:current-layer="Layer_1" />
  <title
     id="title2">job4me-logo</title>
  <g
     id="g1010"
     transform="matrix(1.4255387,0,0,1.4255387,-471.59063,-227.73861)">
    <path
       d="m 770.9082,219.40234 0.91992,49.53125 C 892.09735,297.00118 982.0445,404.1851 983.36719,532.8418 l 0.0117,2.71484 c 0.001,151.00871 -122.3195,273.53105 -273.45508,273.90625 -151.13568,0.3744 -274.06344,-121.53992 -274.8125,-272.54687 -0.0987,-37.46984 7.49803,-74.56146 22.32031,-108.98047 H 771.4492 l 1.1289,96.99804 -0.7832,109.60157 c 10e-6,9.7e-4 -2.28535,30.02212 -10.11328,50.48828 -4.29348,11.22534 -15.07517,21.05297 -26.74414,26.37304 -2.90444,1.32419 -16.52558,4.24763 -20.38867,4.7129 -3.56599,0.42934 -6.35516,0.49061 -9.01563,0.33203 -5.64906,-0.33673 -9.44353,-0.27875 -13.61328,-1.1836 -6.3616,-1.38049 -30.61719,-11.29297 -30.61719,-11.29297 l -19.45703,-16.28711 -14.62304,-16.1875 -31.59571,36.86329 c 0.0645,0.21461 3.56134,5.57263 12.89063,14.54687 3.97668,3.82534 10.06197,9.35859 15.38672,13.42188 9.85573,7.52085 23.15046,14.12662 35.57031,19.83984 15.80629,7.27101 59.39058,7.17287 68.63086,6.11719 7.79639,-0.89072 19.27712,-3.26497 25.20508,-5.63086 9.40617,-3.75406 21.04424,-8.25196 25.10742,-11.69727 4.5524,-3.86013 15.91495,-10.90099 23.23437,-21.35742 4.07785,-5.82555 7.82786,-11.31748 10.69922,-17.31445 4.55632,-9.51609 7.00441,-18.9778 8.17969,-22.26758 5.29924,-14.83335 5.58594,-43.5596 5.58594,-43.56055 l -1.16797,-224.2832 v -34.88086 l -0.002,-0.002 h -0.18165 -341.78906 c 0.0374,-0.0549 0.0758,-0.10919 0.11328,-0.16407 -0.0293,-4e-5 -0.0586,4e-5 -0.0879,0 -0.0385,-4e-5 -0.0767,1e-5 -0.11523,0 -0.0197,4.1e-4 -0.0253,-0.002 -0.0371,-0.004 l -0.12891,0.16797 h -54.67968 l 0.0527,-0.0937 c -0.3301,-0.0226 -0.6604,-0.0413 -0.99023,-0.0684 -0.014,0.0256 -0.0284,0.0509 -0.043,0.0762 -0.0125,0.0362 -0.0249,0.0704 -0.0449,0.11914 -0.0223,0.0543 -0.0418,0.0693 -0.0625,0.0977 -0.0346,0.0763 -0.0662,0.15493 -0.12695,0.20898 -0.005,0.0153 -0.007,0.0267 -0.0137,0.0391 -0.003,0.006 -0.005,0.005 -0.008,0.01 -0.0218,0.0594 -0.041,0.10157 -0.10938,0.18555 -0.0178,0.18488 -0.19175,0.36884 -0.29492,0.49023 -0.0341,0.0401 -0.0677,0.0807 -0.10156,0.12109 -25.81229,47.6821 -39.20844,101.10988 -38.94922,155.34766 0.88058,177.92149 145.39368,321.56529 323.06836,321.125 177.6753,-0.44072 321.47655,-144.80031 321.47655,-322.72461 l -0.016,-3.19922 c -1.52,-153.35416 -110.61696,-284.45201 -260.97,-313.61739 z M 426.80469,381.67383 c 0.005,-0.0125 0.009,-0.0233 0.0156,-0.041 -0.004,0.003 -0.013,0.008 -0.0176,0.0117 -0.0261,0.0381 -0.0454,0.0632 -0.0781,0.12109 0.0421,-0.037 0.0556,-0.0461 0.0801,-0.0918 z m 0.0215,-0.0488 c 0.003,-0.009 0.0111,-0.031 0.008,-0.0234 -0.007,0.0167 -0.006,0.0163 -0.0117,0.0293 0.002,-0.002 0.002,-0.004 0.004,-0.006 z M 771.82812,268.93359 c -0.06,-0.014 -0.11975,-0.0288 -0.17968,-0.043 0.002,0.0357 4.5e-4,0.0656 0.002,0.0957 0.0597,0.0193 0.12027,0.0368 0.17969,0.0566 z m -10.00781,-2.68554 c -0.004,0.007 0.005,0.0413 0.0156,0.0781 0.0163,0.0108 0.0284,0.0227 0.0449,0.0332 -0.0282,-0.0599 -0.0557,-0.11938 -0.0606,-0.11133 z M 428.45703,380.27344 c -6e-5,0.003 5e-5,0.005 0,0.008 0.009,0.002 0.018,0.004 0.0274,0.006 -0.009,-0.007 -0.0195,-0.01 -0.0274,-0.0137 z m -2.12305,1.01172 -0.002,0.002 v 0.0137 c 0.005,-0.005 0.0107,-0.0101 0.0156,-0.0156 z m 0.0664,0 c 0.0531,0.0409 0.12302,0.0872 0.23633,0.14843 0.0304,-0.0414 0.0651,-0.0784 0.0996,-0.11718 -0.005,-0.0107 -0.0104,-0.0207 -0.0156,-0.0312 z m -0.0684,0.73632 v 0.19336 c 0.11049,-0.0222 0.25969,-0.0367 0.20117,-0.0918 -0.0556,-0.0523 -0.13045,-0.0731 -0.20117,-0.10157 z"
       style="opacity:1;fill:#00c8f2;fill-opacity:1;stroke:none;stroke-width:3.10027432;stroke-linecap:round;stroke-linejoin:round;stroke-miterlimit:4;stroke-dasharray:none;stroke-dashoffset:16.39999962;stroke-opacity:1;paint-order:normal"
       id="path853"
       inkscape:connector-curvature="0" />
    <path
       d="m 709.28497,243.17612 a 25,25 0 0 1 -24.93804,24.99992 25,25 0 0 1 -25.06165,-24.876 25,25 0 0 1 24.81382,-25.12323 25,25 0 0 1 25.18464,24.75147"
       sodipodi:open="true"
       sodipodi:end="6.2732718"
       sodipodi:start="0"
       sodipodi:ry="25"
       sodipodi:rx="25"
       sodipodi:cy="243.17612"
       sodipodi:cx="684.28497"
       sodipodi:type="arc"
       id="path969"
       style="opacity:1;fill:#ff8080;fill-opacity:1;stroke:none;stroke-width:2.13325143;stroke-linecap:round;stroke-linejoin:round;stroke-miterlimit:4;stroke-dasharray:none;stroke-dashoffset:16.39999962;stroke-opacity:1;paint-order:normal" />
    <path
       style="opacity:1;fill:#ff8080;fill-opacity:1;stroke:none;stroke-width:2.13325143;stroke-linecap:round;stroke-linejoin:round;stroke-miterlimit:4;stroke-dasharray:none;stroke-dashoffset:16.39999962;stroke-opacity:1;paint-order:normal"
       id="path971"
       sodipodi:type="arc"
       sodipodi:cx="587.28564"
       sodipodi:cy="265.18356"
       sodipodi:rx="25"
       sodipodi:ry="25"
       sodipodi:start="0"
       sodipodi:end="6.2732718"
       sodipodi:open="true"
       d="m 612.28564,265.18356 a 25,25 0 0 1 -24.93804,24.99993 25,25 0 0 1 -25.06165,-24.87601 25,25 0 0 1 24.81382,-25.12323 25,25 0 0 1 25.18465,24.75148" />
    <path
       d="m 536.99881,331.66104 a 25,25 0 0 1 -24.93804,24.99992 25,25 0 0 1 -25.06165,-24.876 25,25 0 0 1 24.81381,-25.12323 25,25 0 0 1 25.18465,24.75148"
       sodipodi:open="true"
       sodipodi:end="6.2732718"
       sodipodi:start="0"
       sodipodi:ry="25"
       sodipodi:rx="25"
       sodipodi:cy="331.66104"
       sodipodi:cx="511.99881"
       sodipodi:type="arc"
       id="path973"
       style="opacity:1;fill:#ff8080;fill-opacity:1;stroke:none;stroke-width:2.13325143;stroke-linecap:round;stroke-linejoin:round;stroke-miterlimit:4;stroke-dasharray:none;stroke-dashoffset:16.39999962;stroke-opacity:1;paint-order:normal" />
  </g>
</svg>
